<?xml version="1.0" standalone="no"?>
<!DOCTYPE svg PUBLIC "-//W3C//DTD SVG 20010904//EN"
 "http://www.w3.org/TR/2001/REC-SVG-20010904/DTD/svg10.dtd">
<svg version="1.0" xmlns="http://www.w3.org/2000/svg"
 width="153.000000pt" height="267.000000pt" viewBox="0 0 153.000000 267.000000"
 preserveAspectRatio="xMidYMid meet">
<metadata>
Created by potrace 1.14, written by Peter Selinger 2001-2017
</metadata>
<g transform="translate(0.000000,267.000000) scale(0.100000,-0.100000)"
fill="#000000" stroke="none">
<path d="M841 2530 c-69 -70 -127 -249 -235 -725 l-33 -150 -71 -27 c-169 -64
-261 -163 -262 -281 0 -89 54 -167 161 -234 47 -29 58 -40 54 -57 -3 -11 -14
-77 -25 -146 -99 -593 -171 -788 -279 -748 l-24 9 22 20 c29 28 25 69 -10 88
-24 13 -29 13 -53 -2 -68 -45 1 -147 99 -147 64 0 130 52 174 138 35 70 93
267 151 515 32 137 60 250 63 253 2 3 26 0 53 -7 27 -6 101 -12 164 -13 l115
-2 -3 -25 c-10 -87 -80 -446 -107 -557 -53 -209 -113 -297 -184 -271 l-24 10
22 20 c29 28 25 69 -10 88 -24 13 -29 13 -53 -2 -68 -45 1 -147 99 -147 64 0
130 52 174 138 34 68 98 284 150 512 28 124 55 234 60 246 5 12 26 25 52 33
112 33 224 118 260 196 11 23 19 63 19 95 0 94 -59 174 -177 241 -32 18 -41
29 -38 44 3 11 16 85 30 165 62 351 121 614 155 680 28 54 45 66 77 51 l26
-12 -21 -15 c-24 -17 -30 -62 -10 -82 7 -7 24 -12 38 -12 35 0 50 17 50 58 0
24 -8 42 -29 63 -25 24 -38 29 -79 29 -43 0 -54 -4 -81 -32 -37 -38 -71 -105
-105 -210 -25 -76 -111 -420 -142 -565 -22 -105 -22 -105 -65 -92 -18 6 -92
13 -164 15 -95 3 -129 8 -128 17 60 374 134 711 173 788 27 53 45 64 77 50
l26 -12 -21 -15 c-24 -17 -30 -62 -10 -82 7 -7 24 -12 38 -12 35 0 50 17 50
58 0 24 -8 42 -29 63 -25 24 -38 29 -79 29 -43 0 -55 -5 -81 -30z m132 -919
c21 -5 40 -11 43 -13 2 -2 -19 -122 -47 -266 l-51 -262 -106 0 c-58 0 -134 5
-169 11 -59 10 -64 13 -59 33 3 11 26 130 52 263 46 238 47 242 73 247 37 6
219 -3 264 -13z m-418 -43 c-6 -26 -85 -420 -85 -425 0 -13 -34 4 -81 41 -60
47 -99 111 -99 162 1 77 74 163 184 215 74 35 88 36 81 7z m680 -79 c132 -122
88 -261 -112 -357 -41 -19 -75 -33 -77 -31 -2 2 17 106 41 231 l46 227 29 -15
c17 -9 50 -33 73 -55z"/>
</g>
</svg>
